<svg width="60" height="60" viewBox="0 0 60 60" fill="none" xmlns="http://www.w3.org/2000/svg">
<path d="M24.2578 30C24.2578 33.1714 26.8286 35.7422 30 35.7422C33.1714 35.7422 35.7422 33.1714 35.7422 30C35.7422 26.8286 33.1714 24.2578 30 24.2578C26.8286 24.2578 24.2578 26.8286 24.2578 30Z" fill="#CACACA"/>
<path d="M16.5712 19.8403C16.8472 19.0923 17.2876 18.4153 17.8598 17.8596C18.4155 17.2874 19.0921 16.847 19.8405 16.571C20.4475 16.3352 21.3594 16.0546 23.0389 15.9781C24.8558 15.8953 25.4005 15.8774 30.0001 15.8774C34.6002 15.8774 35.1449 15.8948 36.9613 15.9777C38.6409 16.0546 39.5532 16.3352 40.1597 16.571C40.9082 16.847 41.5852 17.2874 42.1405 17.8596C42.7127 18.4153 43.153 19.0919 43.4295 19.8403C43.6653 20.4473 43.9459 21.3596 44.0223 23.0392C44.1052 24.8556 44.123 25.4003 44.123 30.0004C44.123 34.6 44.1052 35.1447 44.0223 36.9616C43.9459 38.6411 43.6653 39.553 43.4295 40.16C43.153 40.9084 42.7131 41.585 42.1409 42.1407C41.5852 42.7129 40.9086 43.1533 40.1602 43.4293C39.5532 43.6655 38.6409 43.9461 36.9613 44.0226C35.1449 44.1054 34.6006 44.1228 30.0006 44.1228C25.4001 44.1228 24.8553 44.1054 23.0394 44.0226C21.3598 43.9461 20.4475 43.6655 19.8405 43.4293C18.3381 42.8498 17.1507 41.6624 16.5712 40.16C16.3354 39.553 16.0548 38.6411 15.9779 36.9616C15.8951 35.1447 15.8777 34.6 15.8777 30.0004C15.8777 25.4003 15.8951 24.8556 15.9779 23.0392C16.0544 21.3596 16.335 20.4473 16.5712 19.8403ZM30.0001 38.8457C34.8858 38.8457 38.8464 34.8856 38.8464 29.9999C38.8464 25.1142 34.8858 21.1541 30.0001 21.1541C25.1149 21.1541 21.1543 25.1142 21.1543 29.9999C21.1543 34.8856 25.1149 38.8457 30.0001 38.8457ZM20.8046 22.8716C21.9462 22.8716 22.8718 21.946 22.8718 20.8044C22.8718 19.6627 21.9462 18.7371 20.8046 18.7371C19.6629 18.7371 18.7373 19.6627 18.7373 20.8044C18.7378 21.946 19.6629 22.8716 20.8046 22.8716Z" fill="#CACACA"/>
<path d="M30 0C46.566 0 60 13.434 60 30C60 46.566 46.566 60 30 60C13.434 60 0 46.566 0 30C0 13.434 13.434 0 30 0ZM12.8773 37.1022C12.9607 38.936 13.2523 40.188 13.678 41.2839C14.5729 43.5979 16.4021 45.4271 18.7161 46.322C19.8116 46.7477 21.064 47.0389 22.8973 47.1227C24.7343 47.2064 25.3212 47.2266 29.9995 47.2266C34.6783 47.2266 35.2647 47.2064 37.1022 47.1227C38.9355 47.0389 40.188 46.7477 41.2834 46.322C42.4333 45.8894 43.4743 45.2115 44.3349 44.3349C45.211 43.4747 45.889 42.4333 46.3216 41.2839C46.7473 40.1884 47.0389 38.936 47.1222 37.1027C47.2069 35.2652 47.2266 34.6783 47.2266 30C47.2266 25.3217 47.2069 24.7348 47.1227 22.8978C47.0393 21.064 46.7482 19.812 46.3225 18.7161C45.8899 17.5667 45.2115 16.5253 44.3349 15.6651C43.4747 14.7885 42.4333 14.1106 41.2839 13.678C40.188 13.2523 38.936 12.9611 37.1022 12.8773C35.2652 12.7936 34.6783 12.7734 30 12.7734C25.3217 12.7734 24.7348 12.7936 22.8978 12.8778C21.064 12.9611 19.812 13.2523 18.7161 13.6775C17.5667 14.1101 16.5253 14.7885 15.6647 15.6651C14.7885 16.5257 14.1101 17.5667 13.678 18.7161C13.2518 19.812 12.9607 21.064 12.8769 22.8978C12.7931 24.7348 12.7734 25.3217 12.7734 30C12.7734 34.6783 12.7931 35.2652 12.8773 37.1022Z" fill="#CACACA"/>
</svg>
