<svg width="50" height="50" viewBox="0 0 50 50" fill="none" xmlns="http://www.w3.org/2000/svg">
<path d="M25 49.2188C38.3756 49.2188 49.2188 38.3756 49.2188 25C49.2188 11.6244 38.3756 0.78125 25 0.78125C11.6244 0.78125 0.78125 11.6244 0.78125 25C0.78125 38.3756 11.6244 49.2188 25 49.2188Z" fill="#30BF39"/>
<path d="M32.3438 27.1885C32.0313 27.0322 30.3906 26.0947 30.0781 26.0166C29.7656 25.8603 29.5313 25.8603 29.2969 26.1728C29.0625 26.4853 28.3594 27.2666 28.2031 27.4228C27.9688 27.6572 27.8125 27.6572 27.5 27.501C27.1875 27.3447 26.0938 26.9541 24.8438 25.7041C23.9063 24.7666 23.2031 23.6728 23.0469 23.2822C22.8906 22.9697 23.0469 22.7353 23.2031 22.5791C23.3594 22.4228 23.5156 22.1885 23.75 22.0322C23.9844 21.876 23.9844 21.7197 24.1406 21.4854C24.2969 21.251 24.2188 21.0947 24.1406 20.8604C24.0625 20.626 23.4375 18.9854 23.2031 18.2822C22.9688 17.5791 22.6563 17.7354 22.5 17.6572C22.2656 17.6572 22.1094 17.5791 21.875 17.5791C21.5625 17.5791 21.1719 17.7354 20.9375 17.9697C20.625 18.2822 19.6875 19.0635 19.6875 20.7041C19.6875 22.3447 20.7813 24.0635 20.9375 24.2197C21.0938 24.4541 23.125 28.0478 26.4844 29.5322C29.8438 31.0166 29.8438 30.5478 30.4688 30.5478C31.0938 30.5478 32.5 29.7666 32.8125 29.0635C33.125 28.2822 33.125 27.5791 33.0469 27.501C32.8906 27.501 32.6563 27.4228 32.3438 27.1885ZM26.0938 35.2353C23.9063 35.2353 21.875 34.6103 20.0781 33.4385L15.8594 34.7666L17.2656 30.7041C15.9375 28.8291 15.1562 26.5635 15.1562 24.2197C15.1562 18.126 20.0781 13.2041 26.1719 13.2041C32.2656 13.2041 37.1094 18.126 37.1094 24.2197C37.1094 30.3135 32.1875 35.2353 26.0938 35.2353ZM26.0938 11.0166C18.8281 11.0166 12.8906 16.9541 12.8906 24.2197C12.8906 26.6416 13.5156 28.9853 14.7656 31.0166L12.3438 38.126L19.6875 35.7822C21.6406 36.876 23.8281 37.4229 26.0938 37.4229C33.3594 37.4229 39.2969 31.4853 39.2969 24.2197C39.2969 16.9541 33.4375 11.0166 26.0938 11.0166Z" fill="white"/>
</svg>
