<svg width="50" height="50" viewBox="0 0 50 50" fill="none" xmlns="http://www.w3.org/2000/svg">
<path d="M25 50C38.8071 50 50 38.8071 50 25C50 11.1929 38.8071 0 25 0C11.1929 0 0 11.1929 0 25C0 38.8071 11.1929 50 25 50Z" fill="url(#paint0_linear_136320_4466)"/>
<path fill-rule="evenodd" clip-rule="evenodd" d="M11.3176 24.7364L25.8971 18.4564C32.8399 15.5686 34.2825 15.067 35.2228 15.0505C35.4297 15.0468 35.8921 15.0981 36.1916 15.3411C36.4446 15.5463 36.5141 15.8236 36.5474 16.0181C36.5808 16.2126 36.6222 16.656 36.5892 17.0023C36.213 20.9553 34.585 30.5485 33.7568 34.976C33.4063 36.8495 32.7168 37.4777 32.0483 37.5391C30.5965 37.6727 29.4941 36.5796 28.0879 35.6579L22.5087 31.9103C20.0404 30.2838 21.6405 29.3898 23.0472 27.9288C23.4153 27.5463 29.812 21.7281 29.9357 21.2003C29.9507 21.1343 29.9656 20.8883 29.8194 20.7583C29.6733 20.6283 29.4574 20.6733 29.3018 20.7081C29.0811 20.7582 25.5661 23.0815 18.7567 27.6781C17.7589 28.3633 16.8552 28.6971 16.0455 28.6796C15.1529 28.6603 13.4358 28.1749 12.1594 27.76C10.5937 27.2511 9.34935 26.982 9.45775 26.1177C9.51415 25.6675 10.1341 25.2072 11.3176 24.7365L11.3176 24.7364Z" fill="white"/>
<defs>
<linearGradient id="paint0_linear_136320_4466" x1="25" y1="0" x2="25" y2="49.6292" gradientUnits="userSpaceOnUse">
<stop stop-color="#2AABEE"/>
<stop offset="1" stop-color="#229ED9"/>
</linearGradient>
</defs>
</svg>
