<svg width="50" height="50" viewBox="0 0 50 50" fill="none" xmlns="http://www.w3.org/2000/svg">
<path d="M25 2.72191e-06C38.8071 2.11838e-06 50 11.1929 50 25C50 38.8071 38.8071 50 25 50C11.1929 50 -4.89256e-07 38.8071 -1.09278e-06 25C-1.69631e-06 11.1929 11.1929 3.32544e-06 25 2.72191e-06Z" fill="#ECECEC"/>
<path d="M25 2.72191e-06C38.8071 2.11838e-06 50 11.1929 50 25C50 38.8071 38.8071 50 25 50C11.1929 50 -4.89256e-07 38.8071 -1.09278e-06 25C-1.69631e-06 11.1929 11.1929 3.32544e-06 25 2.72191e-06Z" stroke="black"/>
<path d="M23.3333 16.6667L31.6667 25L23.3333 33.3333" stroke="black"/>
</svg>
