<svg width="97" height="22" viewBox="0 0 97 22" fill="none" xmlns="http://www.w3.org/2000/svg">
<path d="M1.56236 17.8036L0.163569 15.8237H1.17402L2.12414 17.24L3.0818 15.8237H4.0847L2.68214 17.8036L4.15634 19.8713H3.15343L2.12414 18.3562L1.09861 19.8713H0.0957031L1.56236 17.8036Z" fill="white"/>
<path d="M4.25437 15.8237H5.21957L6.06789 18.1183C6.19608 18.4452 6.28154 18.7526 6.32427 19.0405H6.35444C6.37706 18.9063 6.41853 18.7441 6.47886 18.5538C6.53918 18.361 6.8584 17.451 7.43652 15.8237H8.39418L6.61082 20.4092C6.28657 21.251 5.74616 21.6718 4.98958 21.6718C4.79352 21.6718 4.60249 21.6511 4.41649 21.6096V20.9289C4.54971 20.9582 4.70178 20.9728 4.8727 20.9728C5.3 20.9728 5.60037 20.7325 5.77381 20.2519L5.92839 19.8713L4.25437 15.8237Z" fill="white"/>
<path d="M13.0279 21.3022H12.2022V19.8713H9.3443V21.3022H8.52614V19.2052H8.86547C9.16207 18.7929 9.39709 18.2952 9.57052 17.7121C9.74647 17.1265 9.85078 16.4971 9.88346 15.8237H12.4171V19.2052H13.0279V21.3022ZM11.5462 19.2052V16.4824H10.6488C10.6011 16.985 10.5005 17.4803 10.3472 17.9682C10.1964 18.4562 10.0116 18.8685 9.79297 19.2052H11.5462Z" fill="white"/>
<path d="M17.4995 17.8402C17.4995 18.5013 17.3248 19.0173 16.9754 19.3882C16.626 19.759 16.1397 19.9445 15.5163 19.9445C15.1267 19.9445 14.7824 19.8591 14.4832 19.6883C14.1841 19.5175 13.9541 19.2723 13.7933 18.9527C13.6324 18.6331 13.552 18.2622 13.552 17.8402C13.552 17.1839 13.7254 16.6715 14.0723 16.3031C14.4192 15.9347 14.908 15.7505 15.5389 15.7505C16.1422 15.7505 16.6198 15.9396 16.9717 16.3177C17.3236 16.6935 17.4995 17.2009 17.4995 17.8402ZM14.4644 17.8402C14.4644 18.7746 14.8201 19.2418 15.5314 19.2418C16.2352 19.2418 16.5871 18.7746 16.5871 17.8402C16.5871 16.9155 16.2327 16.4531 15.5239 16.4531C15.1519 16.4531 14.8816 16.5727 14.7132 16.8118C14.5473 17.0509 14.4644 17.3937 14.4644 17.8402Z" fill="white"/>
<path d="M20.5761 17.7889V15.8237H21.4018V17.7889L23.0079 15.8237H23.943L22.3029 17.7816L24.09 19.8713H23.1135L21.4018 17.8182V19.8713H20.5761V17.8182L18.8681 19.8713H17.8954L19.6788 17.7816L18.0424 15.8237H18.9775L20.5761 17.7889Z" fill="white"/>
<path d="M26.5558 19.9445C25.9073 19.9445 25.3996 19.7615 25.0326 19.3955C24.6681 19.0271 24.4859 18.5208 24.4859 17.8767C24.4859 17.2156 24.6556 16.6959 24.9949 16.3177C25.3342 15.9396 25.8005 15.7505 26.3937 15.7505C26.9442 15.7505 27.379 15.9127 27.6982 16.2372C28.0174 16.5617 28.1771 17.0082 28.1771 17.5767V18.0414H25.3983C25.4109 18.4342 25.5202 18.7368 25.7263 18.949C25.9325 19.1588 26.2228 19.2638 26.5973 19.2638C26.8436 19.2638 27.0724 19.2418 27.2835 19.1979C27.4971 19.1515 27.7259 19.0759 27.9697 18.971V19.67C27.7535 19.77 27.5348 19.8408 27.3137 19.8822C27.0925 19.9237 26.8398 19.9445 26.5558 19.9445ZM26.3937 16.4019C26.1122 16.4019 25.886 16.4885 25.715 16.6617C25.5466 16.835 25.4461 17.0875 25.4134 17.4193H27.3061C27.3011 17.085 27.2181 16.8325 27.0573 16.6617C26.8964 16.4885 26.6752 16.4019 26.3937 16.4019Z" fill="white"/>
<path d="M30.8653 19.9445C30.2344 19.9445 29.7543 19.7664 29.425 19.4101C29.0983 19.0515 28.9349 18.5379 28.9349 17.8694C28.9349 17.1887 29.1058 16.6654 29.4477 16.2994C29.792 15.9335 30.2884 15.7505 30.9369 15.7505C31.3768 15.7505 31.7727 15.8298 32.1246 15.9884L31.8569 16.68C31.4824 16.5385 31.1732 16.4678 30.9294 16.4678C30.208 16.4678 29.8473 16.9326 29.8473 17.8621C29.8473 18.3159 29.9365 18.6575 30.115 18.8868C30.296 19.1137 30.5599 19.2272 30.9068 19.2272C31.3014 19.2272 31.6747 19.132 32.0266 18.9417V19.6919C31.8682 19.7822 31.6985 19.8469 31.5176 19.8859C31.3391 19.9249 31.1217 19.9445 30.8653 19.9445Z" fill="white"/>
<path d="M36.14 15.8237V16.4971H34.7827V19.8713H33.8929V16.4971H32.5355V15.8237H36.14Z" fill="white"/>
<path d="M40.5626 16.8594C40.5626 17.3376 40.2748 17.6267 39.6992 17.7267V17.756C40.0209 17.7926 40.2672 17.8914 40.4381 18.0524C40.6091 18.2134 40.6945 18.422 40.6945 18.6782C40.6945 19.0613 40.5437 19.3565 40.2421 19.5639C39.943 19.7688 39.5069 19.8713 38.9338 19.8713H36.9431V15.8237H38.9262C40.0171 15.8237 40.5626 16.1689 40.5626 16.8594ZM39.7859 18.627C39.7859 18.4318 39.708 18.2939 39.5521 18.2134C39.3963 18.1305 39.1625 18.089 38.8508 18.089H37.8291V19.2345H38.8735C39.4817 19.2345 39.7859 19.032 39.7859 18.627ZM39.6765 16.9326C39.6765 16.7715 39.6112 16.6556 39.4805 16.5849C39.3523 16.5117 39.16 16.4751 38.9036 16.4751H37.8291V17.4486H38.7717C39.0683 17.4486 39.2932 17.412 39.4465 17.3388C39.5999 17.2631 39.6765 17.1277 39.6765 16.9326Z" fill="white"/>
<path d="M43.4318 19.9445C42.7833 19.9445 42.2755 19.7615 41.9086 19.3955C41.5441 19.0271 41.3619 18.5208 41.3619 17.8767C41.3619 17.2156 41.5315 16.6959 41.8709 16.3177C42.2102 15.9396 42.6765 15.7505 43.2697 15.7505C43.8201 15.7505 44.255 15.9127 44.5742 16.2372C44.8934 16.5617 45.053 17.0082 45.053 17.5767V18.0414H42.2743C42.2869 18.4342 42.3962 18.7368 42.6023 18.949C42.8084 19.1588 43.0987 19.2638 43.4732 19.2638C43.7196 19.2638 43.9483 19.2418 44.1595 19.1979C44.3731 19.1515 44.6018 19.0759 44.8456 18.971V19.67C44.6295 19.77 44.4108 19.8408 44.1896 19.8822C43.9684 19.9237 43.7158 19.9445 43.4318 19.9445ZM43.2697 16.4019C42.9881 16.4019 42.7619 16.4885 42.591 16.6617C42.4226 16.835 42.322 17.0875 42.2894 17.4193H44.1821C44.177 17.085 44.0941 16.8325 43.9332 16.6617C43.7724 16.4885 43.5512 16.4019 43.2697 16.4019Z" fill="white"/>
<path d="M46.9457 15.8237V17.4486H48.9101V15.8237H49.7961V19.8713H48.9101V18.1256H46.9457V19.8713H46.0597V15.8237H46.9457Z" fill="white"/>
<path d="M51.9527 15.8237V17.4486H53.917V15.8237H54.8031V19.8713H53.917V18.1256H51.9527V19.8713H51.0667V15.8237H51.9527Z" fill="white"/>
<path d="M58.6827 19.8713L58.5055 19.3077H58.4754C58.2743 19.5541 58.0719 19.7224 57.8683 19.8127C57.6647 19.9005 57.4033 19.9445 57.0841 19.9445C56.6744 19.9445 56.3539 19.8371 56.1227 19.6224C55.8939 19.4077 55.7796 19.104 55.7796 18.7112C55.7796 18.2939 55.9392 17.9792 56.2584 17.767C56.5776 17.5547 57.064 17.4388 57.7175 17.4193L58.4377 17.3973V17.1814C58.4377 16.9228 58.3748 16.7301 58.2491 16.6032C58.126 16.4739 57.9337 16.4092 57.6723 16.4092C57.4586 16.4092 57.2538 16.4397 57.0577 16.5007C56.8617 16.5617 56.6731 16.6337 56.4922 16.7166L56.2056 16.1018C56.4318 15.9871 56.6794 15.9005 56.9484 15.842C57.2173 15.781 57.4712 15.7505 57.71 15.7505C58.2403 15.7505 58.64 15.8627 58.9089 16.0872C59.1804 16.3116 59.3161 16.6642 59.3161 17.1448V19.8713H58.6827ZM57.3631 19.2857C57.6848 19.2857 57.9425 19.1991 58.136 19.0259C58.3321 18.8502 58.4301 18.605 58.4301 18.2903V17.939L57.8947 17.9609C57.4775 17.9756 57.1733 18.0439 56.9823 18.1659C56.7938 18.2854 56.6995 18.4696 56.6995 18.7185C56.6995 18.899 56.7548 19.0393 56.8654 19.1393C56.976 19.2369 57.1419 19.2857 57.3631 19.2857Z" fill="white"/>
<path d="M60.9789 19.8713H59.9873L61.1485 18.2134C60.867 18.1354 60.6458 17.9963 60.4849 17.7962C60.3241 17.5937 60.2436 17.3437 60.2436 17.046C60.2436 16.663 60.3844 16.3641 60.6659 16.1494C60.9474 15.9323 61.332 15.8237 61.8196 15.8237H63.7199V19.8713H62.8301V18.3122H61.9893L60.9789 19.8713ZM61.107 17.0533C61.107 17.2607 61.1875 17.4169 61.3483 17.5218C61.5117 17.6242 61.7304 17.6755 62.0044 17.6755H62.8301V16.4751H61.8649C61.6236 16.4751 61.4363 16.5251 61.3031 16.6251C61.1724 16.7252 61.107 16.8679 61.107 17.0533Z" fill="white"/>
<path d="M69.6883 15.8237V16.4971H67.8785V19.8713H66.9925V15.8237H69.6883Z" fill="white"/>
<path d="M73.1004 19.8713L72.9232 19.3077H72.8931C72.692 19.5541 72.4896 19.7224 72.286 19.8127C72.0824 19.9005 71.821 19.9445 71.5018 19.9445C71.0921 19.9445 70.7716 19.8371 70.5404 19.6224C70.3117 19.4077 70.1973 19.104 70.1973 18.7112C70.1973 18.2939 70.3569 17.9792 70.6761 17.767C70.9953 17.5547 71.4817 17.4388 72.1352 17.4193L72.8554 17.3973V17.1814C72.8554 16.9228 72.7925 16.7301 72.6668 16.6032C72.5437 16.4739 72.3514 16.4092 72.09 16.4092C71.8763 16.4092 71.6715 16.4397 71.4754 16.5007C71.2794 16.5617 71.0909 16.6337 70.9099 16.7166L70.6233 16.1018C70.8496 15.9871 71.0971 15.9005 71.3661 15.842C71.635 15.781 71.8889 15.7505 72.1277 15.7505C72.6581 15.7505 73.0577 15.8627 73.3267 16.0872C73.5981 16.3116 73.7338 16.6642 73.7338 17.1448V19.8713H73.1004ZM71.7808 19.2857C72.1026 19.2857 72.3602 19.1991 72.5537 19.0259C72.7498 18.8502 72.8478 18.605 72.8478 18.2903V17.939L72.3124 17.9609C71.8952 17.9756 71.591 18.0439 71.4 18.1659C71.2115 18.2854 71.1172 18.4696 71.1172 18.7185C71.1172 18.899 71.1725 19.0393 71.2831 19.1393C71.3937 19.2369 71.5596 19.2857 71.7808 19.2857Z" fill="white"/>
<path d="M78.3977 19.8713H77.5042V16.4971H76.3542C76.2838 17.3656 76.1883 18.0439 76.0677 18.5318C75.9495 19.0198 75.7937 19.376 75.6002 19.6004C75.4091 19.8249 75.1603 19.9371 74.8536 19.9371C74.6601 19.9371 74.498 19.9103 74.3673 19.8566V19.1832C74.4603 19.2174 74.5533 19.2345 74.6463 19.2345C74.9026 19.2345 75.1037 18.9551 75.2495 18.3964C75.3978 17.8353 75.5134 16.9777 75.5964 15.8237H78.3977V19.8713Z" fill="white"/>
<path d="M81.4894 19.9445C80.8409 19.9445 80.3332 19.7615 79.9662 19.3955C79.6017 19.0271 79.4195 18.5208 79.4195 17.8767C79.4195 17.2156 79.5891 16.6959 79.9285 16.3177C80.2678 15.9396 80.7341 15.7505 81.3273 15.7505C81.8777 15.7505 82.3126 15.9127 82.6318 16.2372C82.951 16.5617 83.1106 17.0082 83.1106 17.5767V18.0414H80.3319C80.3445 18.4342 80.4538 18.7368 80.6599 18.949C80.866 19.1588 81.1563 19.2638 81.5309 19.2638C81.7772 19.2638 82.0059 19.2418 82.2171 19.1979C82.4307 19.1515 82.6595 19.0759 82.9033 18.971V19.67C82.6871 19.77 82.4684 19.8408 82.2472 19.8822C82.026 19.9237 81.7734 19.9445 81.4894 19.9445ZM81.3273 16.4019C81.0458 16.4019 80.8195 16.4885 80.6486 16.6617C80.4802 16.835 80.3797 17.0875 80.347 17.4193H82.2397C82.2347 17.085 82.1517 16.8325 81.9908 16.6617C81.83 16.4885 81.6088 16.4019 81.3273 16.4019Z" fill="white"/>
<path d="M86.2325 19.9445C85.7046 19.9445 85.2949 19.7603 85.0033 19.3918H84.9505C84.9857 19.7334 85.0033 19.9408 85.0033 20.014V21.6718H84.1173V15.8237H84.8337C84.8538 15.8993 84.8953 16.0799 84.9581 16.3653H85.0033C85.2798 15.9554 85.6946 15.7505 86.2475 15.7505C86.7678 15.7505 87.1725 15.9335 87.4616 16.2994C87.7532 16.6654 87.8989 17.179 87.8989 17.8402C87.8989 18.5013 87.7506 19.0173 87.454 19.3882C87.16 19.759 86.7528 19.9445 86.2325 19.9445ZM86.0175 16.4531C85.6657 16.4531 85.408 16.5532 85.2446 16.7532C85.0838 16.9533 85.0033 17.2729 85.0033 17.7121V17.8402C85.0033 18.333 85.0838 18.6904 85.2446 18.9124C85.4055 19.132 85.6682 19.2418 86.0326 19.2418C86.3393 19.2418 86.5756 19.1198 86.7414 18.8758C86.9073 18.6319 86.9903 18.2842 86.9903 17.8328C86.9903 17.379 86.9073 17.0362 86.7414 16.8045C86.5781 16.5703 86.3368 16.4531 86.0175 16.4531Z" fill="white"/>
<path d="M90.7493 19.9445C90.1008 19.9445 89.5931 19.7615 89.2261 19.3955C88.8616 19.0271 88.6794 18.5208 88.6794 17.8767C88.6794 17.2156 88.8491 16.6959 89.1884 16.3177C89.5277 15.9396 89.994 15.7505 90.5872 15.7505C91.1377 15.7505 91.5725 15.9127 91.8917 16.2372C92.2109 16.5617 92.3706 17.0082 92.3706 17.5767V18.0414H89.5918C89.6044 18.4342 89.7137 18.7368 89.9198 18.949C90.126 19.1588 90.4163 19.2638 90.7908 19.2638C91.0371 19.2638 91.2658 19.2418 91.477 19.1979C91.6906 19.1515 91.9194 19.0759 92.1632 18.971V19.67C91.947 19.77 91.7283 19.8408 91.5071 19.8822C91.2859 19.9237 91.0333 19.9445 90.7493 19.9445ZM90.5872 16.4019C90.3057 16.4019 90.0795 16.4885 89.9085 16.6617C89.7401 16.835 89.6396 17.0875 89.6069 17.4193H91.4996C91.4946 17.085 91.4116 16.8325 91.2508 16.6617C91.0899 16.4885 90.8687 16.4019 90.5872 16.4019Z" fill="white"/>
<path d="M93.8033 19.8713H92.8117L93.9729 18.2134C93.6914 18.1354 93.4702 17.9963 93.3094 17.7962C93.1485 17.5937 93.0681 17.3437 93.0681 17.046C93.0681 16.663 93.2088 16.3641 93.4903 16.1494C93.7719 15.9323 94.1564 15.8237 94.6441 15.8237H96.5443V19.8713H95.6545V18.3122H94.8137L93.8033 19.8713ZM93.9315 17.0533C93.9315 17.2607 94.0119 17.4169 94.1728 17.5218C94.3361 17.6242 94.5548 17.6755 94.8288 17.6755H95.6545V16.4751H94.6893C94.448 16.4751 94.2607 16.5251 94.1275 16.6251C93.9968 16.7252 93.9315 16.8679 93.9315 17.0533Z" fill="white"/>
<path d="M0 11.7307H6.52484C9.09814 11.7307 10.4153 10.5995 10.4153 8.44607V8.41256C10.4153 6.81216 9.5779 5.84019 7.96414 5.56368V5.41286C9.31621 5.16149 10.0228 4.30683 10.0228 2.91591V2.87401C10.0228 0.980348 8.79283 0 6.38527 0H0V11.7307ZM2.5733 4.80119V1.65905H5.61764C6.84759 1.65905 7.4582 2.17855 7.4582 3.20079V3.23431C7.4582 4.27331 6.84759 4.80119 5.61764 4.80119H2.5733ZM2.5733 10.0632V6.32618H5.69615C7.04822 6.32618 7.7199 6.94623 7.7199 8.16119V8.1947C7.7199 9.4348 7.04822 10.0632 5.69615 10.0632H2.5733Z" fill="white"/>
<path d="M12.8393 0V11.7307H15.3777V0H12.8393Z" fill="white"/>
<path d="M20.689 11.9485C22.7389 11.9485 24.2305 11.0687 24.7801 9.57724L24.9545 9.61914C24.6231 11.2447 24.972 11.9485 26.9783 11.9485C27.2313 11.9485 27.4842 11.9234 27.6936 11.8899L27.9902 10.4403L27.554 10.4319C27.0742 10.4235 26.9347 10.3146 26.9347 9.71969V5.68937C26.9347 3.69516 25.5564 2.73995 22.6168 2.73995C19.4939 2.73995 17.915 3.92139 18.0459 5.96588L20.5494 6.16697C20.4447 4.81795 21.16 4.20628 22.5644 4.20628C23.8205 4.20628 24.4137 4.65037 24.4137 5.66423V6.1586L21.9364 6.59431C19.459 7.03839 17.8191 7.79251 17.8191 9.6359V9.66104C17.8191 11.119 18.8484 11.9485 20.689 11.9485ZM21.7008 10.323C20.846 10.323 20.3837 10.0297 20.3837 9.42642V9.40966C20.3837 8.54662 21.1949 8.1947 22.7999 7.89306L24.4137 7.59141V8.00198C24.4137 9.35101 23.1489 10.323 21.7008 10.323Z" fill="white"/>
<path d="M30.1263 11.7307H32.6647V7.64169C32.6647 5.66423 33.6329 4.44089 35.238 4.44089C36.433 4.44089 37.0262 5.0358 37.0262 6.17535V11.7307H39.5646V5.58882C39.5646 3.74543 38.4393 2.77346 36.3458 2.77346C34.4442 2.77346 33.1444 3.57785 32.3768 5.25366L32.2023 5.17825C32.5513 4.18114 32.6734 3.58623 32.6734 2.93266H30.1263V11.7307Z" fill="white"/>
<path d="M47.1177 11.9401C50.1097 11.9401 51.7845 10.7838 52.0375 8.54662L49.4729 8.27011C49.3683 9.67779 48.5657 10.39 47.1264 10.39C45.5127 10.39 44.6753 9.41804 44.6753 7.49924V7.08867C44.6753 5.21176 45.5214 4.26493 47.1003 4.26493C48.557 4.26493 49.3159 5.04418 49.4293 6.60268L51.959 6.32618C51.7584 3.95491 50.1446 2.72319 47.109 2.72319C43.8117 2.72319 42.0758 4.27331 42.0758 7.23949V7.34842C42.0758 10.3649 43.7942 11.9401 47.1177 11.9401Z" fill="white"/>
<path d="M54.5661 11.7307H57.1045V7.64169C57.1045 5.66423 58.0641 4.44927 59.6778 4.44927C60.8729 4.44927 61.4661 5.0358 61.4661 6.17535V11.7307H64.0045V5.58882C64.0045 3.74543 62.8705 2.77346 60.7857 2.77346C58.8666 2.77346 57.5756 3.57785 56.8167 5.24528L56.6335 5.17825C56.9737 4.2398 57.0958 3.54433 57.1045 2.71481V0H54.5661V11.7307Z" fill="white"/>
<path d="M69.2722 11.9485C71.3221 11.9485 72.8137 11.0687 73.3633 9.57724L73.5377 9.61914C73.2063 11.2447 73.5552 11.9485 75.5615 11.9485C75.8144 11.9485 76.0674 11.9234 76.2768 11.8899L76.5733 10.4403L76.1372 10.4319C75.6574 10.4235 75.5179 10.3146 75.5179 9.71969V5.68937C75.5179 3.69516 74.1396 2.73995 71.1999 2.73995C68.0771 2.73995 66.4982 3.92139 66.6291 5.96588L69.1326 6.16697C69.0279 4.81795 69.7432 4.20628 71.1476 4.20628C72.4037 4.20628 72.9969 4.65037 72.9969 5.66423V6.1586L70.5196 6.59431C68.0422 7.03839 66.4023 7.79251 66.4023 9.6359V9.66104C66.4023 11.119 67.4316 11.9485 69.2722 11.9485ZM70.284 10.323C69.4292 10.323 68.9669 10.0297 68.9669 9.42642V9.40966C68.9669 8.54662 69.7781 8.1947 71.3831 7.89306L72.9969 7.59141V8.00198C72.9969 9.35101 71.7321 10.323 70.284 10.323Z" fill="white"/>
<path d="M78.7094 11.7307H81.2478V8.05226C81.2478 5.7564 81.9893 4.91012 83.9258 4.77605L85.1732 4.68388L84.8766 2.65616C82.8267 2.80698 81.8759 3.42703 80.9338 5.25366L80.7681 5.17825C81.1781 4.00518 81.274 3.53596 81.2566 2.93266H78.7094V11.7307Z" fill="white"/>
<path d="M90.7811 11.8899C92.6653 11.8899 93.8952 11.052 94.5145 9.53535L94.6977 9.594C94.4012 10.5157 94.2441 11.2447 94.2354 11.7307H96.8V0H94.2616V2.38803C94.2616 3.30972 94.3924 4.05546 94.7065 5.06932L94.532 5.13635C93.9127 3.62812 92.674 2.7567 90.7811 2.7567C88.1642 2.7567 86.7859 4.29007 86.7859 7.22273V7.43221C86.7859 10.3565 88.1642 11.8899 90.7811 11.8899ZM91.7406 10.3816C90.1705 10.3816 89.3505 9.41804 89.3505 7.516V7.13056C89.3505 5.22014 90.1705 4.24817 91.7406 4.24817C93.3806 4.24817 94.2616 5.27042 94.2616 7.17246V7.47411C94.2616 9.36777 93.3806 10.3816 91.7406 10.3816Z" fill="white"/>
</svg>
